<svg width="160" height="69" viewBox="0 0 160 69" xmlns="http://www.w3.org/2000/svg"><title>logo/UoM white Copy</title><g fill="#FFFFFE" fill-rule="evenodd"><path d="M103.74 33.309c0-1.414-1.17-2.309-2.635-2.309-1.442 0-2.677.837-2.677 2.072 0 1.08.59 1.824 3.312 2.9 1.171-.686 2-1.544 2-2.663M32.234 20.75h5.497l-2.735-6.695-2.762 6.695m87.144 17.818V32.53l-4.3 6.038h4.3m-18.751-1.574c-1.426.725-2.282 1.747-2.282 3.022 0 1.666 1.274 2.76 2.865 2.76 1.57 0 2.865-1.035 2.865-2.565 0-1.313-1.023-2.18-3.448-3.217m39.899-24.105c-.456 0-.772 0-1.209.049v7.927c.58.075.945.049 1.5.049 2.69 0 4.46-1.062 4.46-4.038 0-2.307-1.018-3.987-4.751-3.987"/><path d="M153.254 27.876c-4.238.199-4.752-.705-6.961-2.857-.856-.833-2.3-2.495-4.146-3.578-.573.025-.958.047-1.594.047-.533 0-.848-.022-1.236-.05v4.107c0 1.49.58 1.861 1.94 1.861h.555v.47h-6.854v-.47h.413c1.428 0 1.939-.398 1.939-2.06V14.994c0-1.54-.415-1.985-1.82-1.985h-.532v-.472c.581 0 2.06-.1 3.053-.147a45.388 45.388 0 0 1 3.052-.076c4.481 0 6.491 1.883 6.491 4.416 0 1.857-1.236 3.42-3.223 4.015.896.721 1.621 1.235 2.76 2.399l1.914 1.875c1.43 1.465 2.387 2.264 4.249 2.387v.47zm-18.84 0H122.5v-.47c1.927-.047 2.062-.32 2.062-1.823l.008-10.758c0-1.505-.133-1.776-2.061-1.824v-.468l11.456.005.192 3.063h-.442c-.31-2.035-.92-2.176-1.774-2.176h-5.38v6.006h4.214c.866 0 1.276-.114 1.398-1.545h.458v4.137h-.458c-.192-1.75-.652-1.643-1.639-1.643h-3.973v5.254c0 1.135.508 1.355 1.402 1.355h3.608c1.66 0 2.201-.364 2.784-2.442h.438l-.38 3.33zM121.481 15.87h-2.745v10.106c0 1.09.358 1.477 1.56 1.477h.452v.425h-5.74v-.425h.45c1.202 0 1.56-.387 1.56-1.477V15.87h-2.743c-.788 0-1.141.221-1.44 2.011h-.354l.283-2.781h10.228l.293 2.78h-.355c-.295-1.78-.66-2.01-1.45-2.01zm.818 23.679h-1.573v3.523h-1.35V39.55h-5.286v-.454l6.072-8.469h.564v7.942h1.573v.98zm-8.607 2.315l-.16 1.209h-.005v.002l-.002-.003h-7.565v-.556c.491-.491 6.053-4.794 6.053-8.288 0-1.463-1.086-2.614-2.514-2.614-1.35 0-2.552 1.051-2.988 2.63h-.303c.226-2.22 1.787-3.74 3.844-3.74 1.996 0 3.46 1.481 3.46 3.448 0 2.965-3.668 5.766-6.052 7.912h4.521c.95-.02 1.286-.333 1.546-1.517h.36l-.198 1.517h.003zM101.19 43.27c-2.262 0-4.06-1.431-4.06-3.215 0-1.375 1.045-2.492 3.077-3.259-1.969-.825-2.91-1.782-2.91-3.115 0-1.726 1.739-3.177 3.83-3.177 2.092 0 3.766 1.253 3.766 2.823 0 1.254-.918 2.217-2.76 2.904 2.197.92 3.177 1.922 3.177 3.43 0 2.039-1.8 3.609-4.12 3.609zm-4.74-.198h-5.303v-.47c1.807 0 1.893-.318 1.893-1.28h.003v-9.127c-.645.547-1.768 1.274-2.517 1.61l-.16-.276c1.167-.764 2.84-2.237 3.32-2.903h.704v10.43c.024 1.259.257 1.502 2.06 1.545v.471zM77.868 20.38v5.2h.004c0 1.504.135 1.775 2.06 1.824v.468h-5.958v-.468c1.806 0 1.891-.32 1.891-1.283h.003V14.288l-.005-.002c0-.962-.086-1.281-1.891-1.281v-.47h5.96v.47c-1.927.047-2.063.319-2.063 1.824l-.005-.002-.005 4.604h8.848l.005-4.815c-.016-1.315-.231-1.566-2.06-1.61v-.469h5.96v.47c-1.806 0-1.894.318-1.894 1.28h-.006v11.834l.01.003c0 .961.085 1.282 1.893 1.282v.468h-5.96v-.468c1.819-.046 2.04-.292 2.06-1.585V20.38h-8.847zm-5.331 6.376c-1.436.701-2.592 1.517-5.435 1.517-4.891 0-7.81-3.305-7.81-7.868 0-4.785 3.014-8.239 8.05-8.239 2.528 0 4.387.87 5.511 1.363l.187 3.053h-.46c-.793-2.295-2.467-3.797-5.094-3.797-4.024 0-6.029 3.185-6.029 7.331 0 4.463 2.633 7.478 6.296 7.478 1.096 0 3.84-.748 5.48-3.733h.455l-1.151 2.895zm-13.391-13.75c-1.808 0-1.896.32-1.896 1.281V28.05h-.625L45.426 14.684v10.58c0 1.776.083 2.145 2.133 2.145v.467h-9.805v-.467h.328c1.374 0 1.88-.149 1.88-.84 0-.394-.17-.764-.265-1.01l-1.58-3.86h-6.275l-1.338 3.242c-.168.47-.483 1.21-.483 1.555 0 .667.627.913 1.951.913h.087v.467h-9.3v-.467c1.131 0 2.241-.32 2.144-1.629l-.698-11.048h-.048L18.66 27.877h-.553l-5.66-13.144h-.05l-.65 11.1c-.071 1.257.843 1.527 1.929 1.577v.467H8.663v-.467c1.762 0 1.977-.396 2.1-2.64l.64-10.481c0-.963-.286-1.282-2.093-1.282v-.469h4.221l5.323 12.455 5.295-12.456 4.063-.001v.47c-1.807 0-2.093.319-2.093 1.281l.736 10.851c.105 1.657.326 2.227.951 2.227.498 0 .666-.334 1.591-2.396l5.175-12.43h1.71l5.606 13.316c.35.779.649 1.506 1.293 1.506.809 0 1.16-.668 1.16-1.605V13.623c-.554-.397-1.002-.592-1.845-.617v-.469H46.1l10.066 12.11v-9.814c0-1.507-.136-1.778-2.061-1.827v-.469h5.04v.47zm31.825 14.4c1.93-.047 2.063-.32 2.063-1.823l.01-10.758c0-1.505-.137-1.776-2.064-1.824v-.468l11.46.005.188 3.063h-.441c-.31-2.035-.92-2.176-1.772-2.176h-5.382v6.006h4.214c.868 0 1.278-.114 1.397-1.545h.457v4.137h-.457c-.193-1.75-.651-1.643-1.642-1.643h-3.97v5.254c0 1.135.511 1.355 1.4 1.355h3.61c1.658 0 2.205-.364 2.783-2.442h.44l-.377 3.33H90.97v-.47zm12.975-9.4c0-1.695 1.608-3.168 3.823-3.168 1.408 0 3.008.507 3.754.856l.287 2.186h-.348c-.608-1.47-1.999-2.447-3.497-2.447-1.432 0-2.433.69-2.433 1.833 0 2.9 6.931 3.57 6.931 7.328 0 2.001-1.849 3.678-4.388 3.678-1.202 0-2.73-.366-3.854-.686l-.44-3.038h.38c.463 2.01 2.02 3.068 3.718 3.068 1.456 0 2.995-.691 2.995-2.302 0-2.939-6.928-3.735-6.928-7.308zM.071 50.663h159.145V.069H.071v50.593zm3.605 6.6v8.272H2.672v-8.272H0v-.865h6.36v.864H3.676m8.106 8.273v-4.36c0-1.055-.278-1.665-1.229-1.665-1.177 0-2.01 1.191-2.01 2.789v3.236H7.55v-9.882h.991v3.288c0 .448-.025 1.003-.105 1.34l.026.014c.385-.988 1.204-1.624 2.34-1.624 1.509 0 1.971.975 1.971 2.166v4.698h-.992m5.344-6.079c-.926 0-1.586.69-1.746 1.746h3.333c.026-1.042-.582-1.746-1.587-1.746zm2.592 2.505h-4.39c-.067 2.017.714 2.855 2.181 2.855.688 0 1.415-.175 1.904-.432l.093.866c-.609.257-1.348.406-2.169.406-1.983 0-3.04-1.096-3.04-3.452 0-2.017 1.057-3.519 2.881-3.519 1.812 0 2.566 1.285 2.566 2.775 0 .123 0 .297-.026.501zm7.523 3.695c-2.763 0-3.292-1.584-3.292-3.154v-6.105h1.018v6.01c0 1.313.424 2.397 2.354 2.397 1.639 0 2.446-.704 2.446-2.654v-5.752h.991v5.67c0 2.343-1.202 3.588-3.516 3.588m9.692-.121v-4.36c0-1.055-.277-1.665-1.23-1.665-1.176 0-2.009 1.191-2.009 2.789v3.236h-.993v-6.729h.98c0 .433-.04 1.084-.107 1.489l.027.014c.37-.974 1.203-1.638 2.353-1.638 1.508 0 1.97.975 1.97 2.166v4.698h-.99m2.869-.001h.991v-6.728h-.991v6.728zm.503-7.947a.68.68 0 0 1-.689-.69c0-.378.304-.69.689-.69.37 0 .687.312.687.69 0 .393-.317.69-.687.69zm5.077 7.948H44.35l-2.486-6.729h1.125l1.533 4.387c.132.418.252.798.371 1.19h.013c.106-.364.224-.772.357-1.135l1.573-4.442h1.086l-2.54 6.729m5.62-6.079c-.927 0-1.587.69-1.746 1.746h3.332c.027-1.042-.582-1.746-1.586-1.746zm2.591 2.505h-4.39c-.067 2.017.713 2.855 2.182 2.855.687 0 1.414-.175 1.904-.432l.093.866c-.608.257-1.35.406-2.17.406-1.983 0-3.04-1.096-3.04-3.452 0-2.017 1.057-3.519 2.882-3.519 1.811 0 2.566 1.285 2.566 2.775 0 .123 0 .297-.027.501zm4.747-2.275c-1.455-.243-2.143.894-2.143 3.154v2.695h-.991v-6.729h.98c0 .448-.055 1.11-.146 1.693l.012.012c.265-.987.953-1.989 2.329-1.826l-.04 1.001m2.274 5.97c-.49 0-.993-.053-1.39-.135l.027-.935a5.47 5.47 0 0 0 1.468.218c.952 0 1.613-.434 1.613-1.138 0-1.623-3.199-.608-3.199-3.005 0-1.123.899-1.976 2.565-1.976.41 0 .872.067 1.282.149l-.025.88a4.308 4.308 0 0 0-1.363-.23c-.966 0-1.44.406-1.44 1.069 0 1.61 3.212.69 3.212 2.978 0 1.191-1.032 2.125-2.75 2.125m4.271-.122h.992v-6.728h-.992v6.728zm.502-7.947a.68.68 0 0 1-.687-.69c0-.378.304-.69.687-.69.37 0 .687.312.687.69 0 .393-.317.69-.687.69zm4.589 8.055c-1.323 0-1.706-.594-1.706-1.99v-4.047h-1.429v-.799h1.429v-2.233l.991-.284v2.517h1.93v.799h-1.93v3.628c0 1.205.212 1.517.993 1.517.33 0 .674-.041.938-.123v.88a5.67 5.67 0 0 1-1.216.135m4.813.597C74.023 68.31 73.44 69 72 69c-.238 0-.568-.028-.833-.067l.105-.934c.265.094.53.135.82.135.793 0 1.191-.38 1.706-1.8l.304-.799-2.512-6.729h1.138l1.374 3.859c.212.609.357 1.096.504 1.596h.012c.118-.432.397-1.272.662-2.043l1.177-3.412h1.084L74.79 66.24m8.833-6.716c-1.03 0-2.01.798-2.01 2.6 0 1.718.728 2.666 2.01 2.666 1.032 0 1.97-.813 1.97-2.666 0-1.625-.66-2.6-1.97-2.6zm-.146 6.132c-1.758 0-2.895-1.096-2.895-3.452 0-1.923 1.163-3.519 3.134-3.519 1.6 0 2.91.906 2.91 3.37 0 2.004-1.205 3.601-3.149 3.601zm8.477-9.097a3.327 3.327 0 0 0-1.032-.149c-1.005 0-1.455.596-1.455 1.895v.501h1.945v.799h-1.945v5.93h-.992v-5.93h-1.429v-.799h1.43v-.473c0-1.883.911-2.748 2.485-2.748.371 0 .728.04 1.084.121l-.091.853m11.954 8.976l-.794-5.632c-.159-1.11-.225-1.787-.279-2.288h-.025a17.28 17.28 0 0 1-.437 1.53l-2.09 6.39h-1.15l-1.984-5.984c-.224-.663-.461-1.381-.568-1.936h-.013c-.04.731-.133 1.462-.238 2.396l-.648 5.524h-1.044l1.268-9.137h1.283l2.037 6.172c.225.663.41 1.273.502 1.773h.027c.132-.623.265-1.028.49-1.678l2.089-6.267h1.322l1.322 9.137h-1.07m6.188-3.155c-2.473 0-3.002.799-3.002 1.449 0 .608.423 1.002 1.071 1.002 1.164 0 1.93-1.178 1.93-2.342v-.109zm.052 3.155c0-.515 0-1.03.067-1.422h-.027c-.317.853-1.163 1.543-2.288 1.543-1.044 0-1.798-.569-1.798-1.637 0-1.409 1.428-2.384 3.994-2.384v-.554c0-1.016-.358-1.584-1.495-1.584-.635 0-1.428.203-2.01.582l-.092-.894a5.455 5.455 0 0 1 2.274-.5c1.812 0 2.328.92 2.328 2.192v2.64c0 .664 0 1.422.026 2.018h-.979zm7.075 0v-4.36c0-1.055-.277-1.665-1.23-1.665-1.177 0-2.01 1.191-2.01 2.789v3.236h-.991v-6.729h.978c0 .433-.04 1.084-.106 1.489l.027.014c.37-.974 1.204-1.638 2.354-1.638 1.508 0 1.97.975 1.97 2.166v4.698h-.992m5.357.08c-1.468 0-2.844-.662-2.844-3.207 0-2.208 1.084-3.697 3.227-3.697.54 0 1.084.081 1.547.23l-.106.894a4.046 4.046 0 0 0-1.508-.297c-1.414 0-2.115 1.07-2.115 2.693 0 1.38.422 2.519 2.01 2.519.58 0 1.216-.15 1.652-.38l.092.88a5.435 5.435 0 0 1-1.956.365m7.563-.08v-4.36c0-1.055-.278-1.665-1.23-1.665-1.176 0-2.009 1.191-2.009 2.789v3.236h-.991v-9.882h.991v3.288c0 .448-.027 1.003-.106 1.34l.027.014c.383-.988 1.202-1.624 2.34-1.624 1.507 0 1.97.975 1.97 2.166v4.698h-.992m5.342-6.079c-.925 0-1.586.69-1.745 1.746h3.333c.027-1.042-.583-1.746-1.588-1.746zm2.593 2.505h-4.391c-.066 2.017.714 2.855 2.182 2.855.687 0 1.415-.175 1.905-.432l.092.866c-.608.257-1.349.406-2.168.406-1.984 0-3.042-1.096-3.042-3.452 0-2.017 1.058-3.519 2.883-3.519 1.81 0 2.564 1.285 2.564 2.775 0 .123 0 .297-.025.501zm2.604 3.695a7.23 7.23 0 0 1-1.388-.135l.027-.935c.422.123.952.218 1.467.218.953 0 1.614-.434 1.614-1.138 0-1.623-3.201-.608-3.201-3.005 0-1.123.9-1.976 2.565-1.976.41 0 .873.067 1.284.149l-.027.88a4.295 4.295 0 0 0-1.362-.23c-.966 0-1.442.406-1.442 1.069 0 1.61 3.214.69 3.214 2.978 0 1.191-1.03 2.125-2.751 2.125m6.361-.014c-1.322 0-1.706-.594-1.706-1.99v-4.047h-1.428v-.799h1.428v-2.233l.992-.284v2.517h1.93v.799h-1.93v3.628c0 1.205.211 1.517.992 1.517.33 0 .675-.041.939-.123v.88a5.688 5.688 0 0 1-1.217.135m4.88-6.186c-.926 0-1.588.69-1.746 1.746h3.332c.027-1.042-.581-1.746-1.586-1.746zm2.59 2.505h-4.389c-.066 2.017.714 2.855 2.182 2.855.688 0 1.415-.175 1.904-.432l.092.866c-.608.257-1.348.406-2.168.406-1.983 0-3.042-1.096-3.042-3.452 0-2.017 1.059-3.519 2.883-3.519 1.812 0 2.566 1.285 2.566 2.775 0 .123 0 .297-.027.501zm4.682-2.275c-1.454-.243-2.142.894-2.142 3.154v2.695h-.991v-6.729h.978c0 .448-.053 1.11-.145 1.693l.012.012c.265-.987.952-1.989 2.328-1.826l-.04 1.001"/></g></svg>